<?xml version="1.0" encoding="UTF-8"?>
<svg id="Layer_1" xmlns="http://www.w3.org/2000/svg" viewBox="0 0 150 150">
  <defs>
    <style>
      .cls-1 {
        fill: #007dfc;
      }
    </style>
  </defs>
  <path class="cls-1" d="M113.68,22.93h-10.9c.05-.22.09-.46.09-.72l-.48-13.66c-.04-1.39-1.18-2.48-2.57-2.49l-73.83-.18c-3.82,0-6.95,3.09-6.97,6.91l-.84,119c-.01,1.38,1.09,2.53,2.48,2.58l14.99.62v4.58c.01,2.52,2.04,4.55,4.56,4.55h.06c.45-.01,3.17-.04,6.7-.12,2.72-.06,5.4-.45,7.95-1.15,10.48-2.84,19.11-10.77,22.43-21.45.41-1.34.8-2.68,1.12-4.03,2.65-10.58,2.92-21.61.81-32.24-.07-.42-.15-.83-.24-1.25-.13-.67.51-1.24,1.17-1.02.53.17,1.07.35,1.6.5,13.72,3.98,29.12.27,39.52-10.88,6.94-7.42,10.41-16.84,10.51-26.26.03-3.51-.4-7.04-1.3-10.46l-.03-.14c-2.03-7.54-9-12.69-16.82-12.69ZM23.34,129.32l.84-116.5c0-.99.81-1.79,1.8-1.79l71.36.17.39,11.19c0,.19.04.37.08.54h-36.81s-20.83.02-20.83.02c-2.52,0-4.56,2.05-4.56,4.56v3.73s.04,98.6.04,98.6l-12.3-.51ZM63.07,62.29c.71,0,1.3.56,1.31,1.27,0,.34-.14.66-.35.9-.24.24-.56.4-.93.41l-15.37.19c-.71,0-1.29-.55-1.3-1.26-.02-.72.55-1.29,1.27-1.31l15.37-.2ZM46.51,54.57c0-.71.55-1.29,1.28-1.3l25.48-.33c.72-.02,1.3.56,1.31,1.27.01.34-.12.66-.35.9-.22.25-.56.4-.92.4l-25.5.32c-.71,0-1.29-.55-1.31-1.27ZM84.27,44.88c0,.33-.13.65-.35.9-.23.24-.56.4-.92.4l-35.1.45c-.71,0-1.3-.56-1.31-1.27,0-.71.55-1.29,1.27-1.31l35.09-.44c.72-.02,1.3.56,1.31,1.27ZM48.01,37.4c-.71,0-1.3-.56-1.31-1.27s.55-1.29,1.27-1.31l46.88-.6c.71,0,1.3.56,1.31,1.27,0,.35-.14.66-.35.9-.24.24-.57.4-.93.41l-46.88.6Z"/>
</svg>